<?xml version="1.0" encoding="utf-8"?>
<svg viewBox="3.383 2.478 56.461 21.067" width="56.461" height="21.067" xmlns="http://www.w3.org/2000/svg">
  <path d="M 9.326 15.708 Q 9.326 20.37 5.882 20.37 Q 4.538 20.37 3.383 19.173 L 4.832 17.535 Q 5.357 18.396 5.966 18.396 Q 6.575 18.396 6.879 17.808 Q 7.184 17.22 7.184 15.288 L 7.184 7.287 L 9.326 7.287 Z M 19.321 15.876 Q 19.321 15.876 19.321 16.853 Q 19.321 17.829 18.124 19.068 Q 16.927 20.307 14.984 20.307 Q 13.042 20.307 11.824 19.068 Q 10.606 17.829 10.606 15.887 Q 10.606 13.944 11.803 12.705 Q 13 11.466 14.953 11.466 Q 16.906 11.466 18.113 12.695 Q 19.321 13.923 19.321 15.876 Z M 12.664 15.908 Q 12.664 15.908 12.664 16.49 Q 12.664 17.073 13.315 17.808 Q 13.966 18.543 14.995 18.543 Q 16.024 18.543 16.643 17.756 Q 17.263 16.968 17.263 15.887 Q 17.263 14.805 16.633 14.018 Q 16.003 13.23 14.984 13.23 Q 13.966 13.23 13.315 13.986 Q 12.664 14.742 12.664 15.908 Z M 20.433 5.691 L 22.47 5.691 L 22.47 12.495 Q 23.352 11.466 25.095 11.466 Q 26.733 11.466 27.814 12.768 Q 28.896 14.07 28.896 15.834 Q 28.896 17.745 27.825 19.026 Q 26.754 20.307 25.053 20.307 Q 23.226 20.307 22.512 19.257 L 22.47 20.034 L 20.433 20.034 Z M 26.817 15.876 Q 26.817 14.826 26.166 14.028 Q 25.515 13.23 24.507 13.23 Q 23.499 13.23 22.869 14.018 Q 22.239 14.805 22.239 15.887 Q 22.239 16.968 22.9 17.756 Q 23.562 18.543 24.528 18.543 Q 25.578 18.543 26.197 17.777 Q 26.817 17.01 26.817 15.876 Z M 34.42 13.461 Q 33.748 12.831 33.013 12.831 Q 31.9 12.831 31.9 13.839 Q 31.9 14.406 32.908 14.763 Q 34.756 15.435 35.197 15.992 Q 35.638 16.548 35.638 17.367 Q 35.638 18.711 34.704 19.509 Q 33.769 20.307 32.404 20.307 Q 30.64 20.307 29.485 18.921 L 30.388 17.766 Q 31.438 18.816 32.32 18.816 Q 33.601 18.816 33.601 17.577 Q 33.601 16.947 32.929 16.643 Q 32.257 16.338 31.9 16.191 Q 29.968 15.351 29.968 14.154 Q 29.968 12.957 30.693 12.212 Q 31.417 11.466 32.593 11.466 Q 34.273 11.466 35.26 12.327 Z M 38.95 12.495 Q 39.832 11.466 41.575 11.466 Q 43.213 11.466 44.294 12.768 Q 45.376 14.07 45.376 15.834 Q 45.376 17.745 44.305 19.026 Q 43.234 20.307 41.533 20.307 Q 39.706 20.307 38.992 19.257 L 38.95 23.541 L 36.913 23.541 L 36.913 11.739 L 38.95 11.739 Z M 43.297 15.876 Q 43.297 14.805 42.688 14.018 Q 42.079 13.23 41.008 13.23 Q 40.021 13.23 39.37 14.028 Q 38.719 14.826 38.719 15.866 Q 38.719 16.905 39.412 17.724 Q 40.105 18.543 41.008 18.543 Q 42.079 18.543 42.688 17.787 Q 43.297 17.031 43.297 15.876 Z M 54.617 15.876 Q 54.617 15.876 54.617 16.853 Q 54.617 17.829 53.42 19.068 Q 52.223 20.307 50.281 20.307 Q 48.338 20.307 47.12 19.068 Q 45.902 17.829 45.902 15.887 Q 45.902 13.944 47.099 12.705 Q 48.296 11.466 50.249 11.466 Q 52.202 11.466 53.41 12.695 Q 54.617 13.923 54.617 15.876 Z M 47.96 15.908 Q 47.96 15.908 47.96 16.49 Q 47.96 17.073 48.611 17.808 Q 49.262 18.543 50.291 18.543 Q 51.32 18.543 51.94 17.756 Q 52.559 16.968 52.559 15.887 Q 52.559 14.805 51.929 14.018 Q 51.299 13.23 50.281 13.23 Q 49.262 13.23 48.611 13.986 Q 47.96 14.742 47.96 15.908 Z M 58.228 20.034 L 56.191 20.034 L 56.191 13.566 L 55.204 13.566 L 55.204 11.907 L 56.191 11.907 L 56.191 8.925 L 58.228 8.925 L 58.228 11.907 L 59.845 11.907 L 59.845 13.566 L 58.228 13.566 Z" style="fill: rgb(22, 73, 77); white-space: pre;"/>
</svg>